<?xml version="1.0" standalone="no"?><!DOCTYPE svg PUBLIC "-//W3C//DTD SVG 1.1//EN" "http://www.w3.org/Graphics/SVG/1.1/DTD/svg11.dtd"><svg t="1770679993900" class="icon" viewBox="0 0 1024 1024" version="1.1" xmlns="http://www.w3.org/2000/svg" p-id="12774" width="256" height="256" xmlns:xlink="http://www.w3.org/1999/xlink"><path d="M499.529066 73.56071L487.068986 0.775607A510.277188 510.277188 0 0 0 159.829074 140.419677l43.089302 45.15151 122.473471-27.6553 12.763985 51.837407-160.852255 165.649603 29.565556 66.902382a1126.617009 1126.617009 0 0 1-12.004224 118.652959c-5.578816 13.610575-49.275927-1.497815-49.275927-1.497814l3.603438-41.048801-26.048948-78.667824-45.585659 7.054924-21.881117 102.980175-55.093525-14.457166a509.929868 509.929868 0 0 0 13.762527 97.292821l83.552002-60.780879 104.195793 25.593092 25.180649 87.980322-51.012523 87.15544 17.214013 105.845559 83.22639 49.731784 14.956437 46.106638a510.320603 510.320603 0 0 0 204.592781 49.536416l29.19653-954.042727-26.048949 3.863927z" fill="#00AAFF" p-id="12775"></path><path d="M982.368028 583.316919l-56.634755-122.451764-15.043267 40.571237 26.526512 35.752181 5.12296 170.056217-92.256692-84.832741-8.574445-114.094393-89.608382-2.756847-38.878055 86.829827-65.46969-1.997086-83.98615-73.284374 18.885487-109.796317 93.645969-16.584497 60.954539 36.294868 61.215028-140.75115 54.637669-93.667677 60.520389 1.845134a513.251109 513.251109 0 0 0-63.602848-67.054334l-95.51281 21.295015-64.970418-18.277678-103.067005-69.637522-60.78088 8.986887-29.196529 954.042728a510.320603 510.320603 0 0 0 149.781452-17.539625l21.42526-51.359843-13.979602-50.44813-39.26879-13.154719-75.086093-83.595416-14.652533-84.919571 83.291512-73.327789 122.842498-13.480331 124.948121 31.388983 7.337121 98.117705-1.845134 60.672341 23.118442 37.206581a509.625964 509.625964 0 0 0 136.496488-295.06946l-3.58173 5.730768-34.731931 9.269084z" fill="#008EEF" p-id="12776"></path><path d="M913.425145 194.384415l-60.520389-1.845134-54.637669 93.667676-61.215028 140.75115-60.954539-36.294867-93.645969 16.584497-18.885487 109.796316 83.98615 73.284374 65.46969 1.997086 38.878055-86.829827 89.608382 2.756847 8.574445 114.094393 92.256692 84.832742-5.12296-170.056217-26.526512-35.752182 15.043267-40.571236 56.634755 122.451764 34.731931-9.269085 3.581731-5.730768c1.476107-13.415208 2.604895-26.917246 3.017336-40.658067a509.973283 509.973283 0 0 0-110.295588-333.274584z" fill="#396B00" p-id="12777"></path><path d="M586.163526 60.709896l103.067005 69.637521 64.970419 18.277679 95.51281-21.295015A509.691086 509.691086 0 0 0 527.640223 0.189506l-2.170746 69.463862 60.780879-8.986887z" fill="#396B00" p-id="12778"></path><path d="M525.491184 69.653368l2.170746-69.463862a504.416174 504.416174 0 0 0-40.571237 0.520979l12.460081 72.785103 26.048948-3.863928z" fill="#5CA300" p-id="12779"></path><path d="M862.933601 765.507604l-7.337121-98.117705-124.948121-31.388982-122.842498 13.48033-83.291512 73.327789 14.652533 84.919572 75.020971 83.508586 39.268789 13.154719 13.979603 50.44813-21.42526 51.359842a512.122322 512.122322 0 0 0 238.195924-142.813358l-23.118442-37.206581 1.845134-60.672342z" fill="#396B00" p-id="12780"></path><path d="M193.519047 878.364672l-17.214013-105.845559 51.012523-87.15544-25.18065-87.980322-104.195792-25.593092-83.552002 60.780879a513.034035 513.034035 0 0 0 277.291054 341.588541l-14.956438-46.106638-83.226389-49.731784z" fill="#5CA300" p-id="12781"></path><path d="M77.622935 446.798723l45.585659-7.054924 26.048949 78.667824-3.603438 41.048801s43.697111 15.19522 49.275927 1.497814a1126.617009 1126.617009 0 0 0 12.004223-118.652959l-29.565556-66.902382 160.852255-165.649603-12.763984-51.837407-122.473472 27.6553-43.089302-45.15151a510.298895 510.298895 0 0 0-159.593222 356.002292c-0.412442 13.024474-0.151952 26.048948 0.412442 38.964885l55.093525 14.457166 21.881116-102.980175z" fill="#5CA300" p-id="12782"></path><path d="M789.909716 165.817402a56.960367 56.960367 0 0 0-29.565556 7.380535 65.12237 65.12237 0 0 0-112.336089 14.630826l-4.341492-0.586101a44.608824 44.608824 0 0 0-2.735139 89.19594l145.548498 4.450028a57.568176 57.568176 0 1 0 3.516608-115.049521z" fill="#B3EAFF" p-id="12783"></path><path d="M339.393157 761.383187a71.113629 71.113629 0 0 0-36.772432 9.160547 80.968814 80.968814 0 0 0-139.64407 18.190849c-1.823426-0.217075-3.603438-0.651224-5.491986-0.694639a55.462552 55.462552 0 0 0-3.386363 110.88169l180.909945 5.535401a71.634608 71.634608 0 0 0 4.341491-143.073848z" fill="#B3EAFF" p-id="12784"></path><path d="M379.291463 775.145715a71.634608 71.634608 0 0 1-62.539183 109.969976l-180.909946-5.557109a54.681084 54.681084 0 0 1-28.219694-8.986887 55.202063 55.202063 0 0 0 46.475666 28.306524l180.909945 5.535401a71.634608 71.634608 0 0 0 44.283212-129.376442z" fill="#A3DDEF" p-id="12785"></path><path d="M316.75228 885.050569a63.320652 63.320652 0 1 0-14.131555-114.506835 80.968814 80.968814 0 0 0-139.64407 18.190849c-1.823426-0.217075-3.603438-0.651224-5.491986-0.694639a55.462552 55.462552 0 0 0-57.047197 53.747663 30.39044 30.39044 0 0 0 35.491692 37.705853l180.909945 5.557109z" fill="#DCF7FF" p-id="12786"></path><path d="M930.986478 713.539952a75.672195 75.672195 0 0 0-39.073422 9.659819 87.242269 87.242269 0 0 0-150.041942 19.536711c-1.888549-0.238782-3.75539-0.694639-5.709061-0.759761a59.391602 59.391602 0 1 0-3.625145 118.739789l193.695637 5.926135a76.627323 76.627323 0 1 0 4.688811-153.189522z" fill="#B3EAFF" p-id="12787"></path><path d="M845.69788 225.122174a57.372808 57.372808 0 0 0-26.048948-49.710076 57.307686 57.307686 0 0 1-51.55521 86.070066l-145.439961-4.450029a44.087845 44.087845 0 0 1-20.383302-5.861013 44.391749 44.391749 0 0 0 38.617566 25.26748l145.548498 4.450028a57.568176 57.568176 0 0 0 59.304772-55.766456z" fill="#A3DDEF" p-id="12788"></path><path d="M768.137137 261.482164a57.307686 57.307686 0 0 0 51.55521-86.070066 56.244021 56.244021 0 0 0-59.348187-2.170746 65.12237 65.12237 0 0 0-112.336089 14.630826l-4.341492-0.586101a44.283212 44.283212 0 0 0-41.244168 63.92846 44.087845 44.087845 0 0 0 20.383302 5.861013l145.439961 4.450029z" fill="#DCF7FF" p-id="12789"></path><path d="M439.073799 322.176213a54.854743 54.854743 0 0 1 7.228583 28.718966 55.440845 55.440845 0 0 1-57.112319 53.725955l-140.186756-4.341491a42.655153 42.655153 0 0 1-19.189392-5.383449 42.872227 42.872227 0 0 0 37.445363 24.789915l140.165049 4.341492a55.3106 55.3106 0 0 0 31.649472-101.873095z" fill="#A3DDEF" p-id="12790"></path><path d="M389.276893 404.621134a55.440845 55.440845 0 0 0 57.112319-53.725955 54.854743 54.854743 0 0 0-7.228583-28.718966 53.964738 53.964738 0 0 0-56.721585-1.888548 62.73455 62.73455 0 0 0-108.211672 14.088139l-4.341492-0.542686a42.655153 42.655153 0 0 0-40.071965 61.128198 42.655153 42.655153 0 0 0 19.189392 5.383449l140.186756 4.341492z" fill="#DCF7FF" p-id="12791"></path><path d="M974.401392 728.822002a76.453663 76.453663 0 0 1-66.337988 118.479299l-193.739053-5.904428a59.087697 59.087697 0 0 1-31.085078-10.115675 59.23965 59.23965 0 0 0 49.362757 29.522142l193.695637 5.926135a76.518785 76.518785 0 0 0 48.103725-137.907473z" fill="#A3DDEF" p-id="12792"></path><path d="M907.954866 847.301301a68.877761 68.877761 0 1 0 22.923075-133.761349 75.672195 75.672195 0 0 0-39.073423 9.659819 87.242269 87.242269 0 0 0-150.041941 19.536711c-1.888549-0.238782-3.75539-0.694639-5.709061-0.759761a52.097896 52.097896 0 1 0-21.902824 99.333322l193.739052 5.904429z" fill="#DCF7FF" p-id="12793"></path></svg>